<mxfile host="app.diagrams.net" modified="2024-05-23T10:25:50.336Z" agent="Mozilla/5.0 (Windows NT 10.0; Win64; x64) AppleWebKit/537.36 (KHTML, like Gecko) Chrome/125.0.0.0 Safari/537.36" etag="2Xr2j9s9icnoAwv4RQry" version="24.4.6" type="device">
  <diagram name="Page-1" id="c7558073-3199-34d8-9f00-42111426c3f3">
    <mxGraphModel dx="3663" dy="2220" grid="1" gridSize="10" guides="1" tooltips="1" connect="1" arrows="1" fold="1" page="1" pageScale="1" pageWidth="826" pageHeight="1169" background="none" math="0" shadow="0">
      <root>
        <mxCell id="0" />
        <mxCell id="1" parent="0" />
        <mxCell id="LLnZXkh-c3uIDS0KH3eN-126" value="Head" style="whiteSpace=wrap;align=center;verticalAlign=top;fontStyle=1;strokeWidth=3;fillColor=#FFFFCC" vertex="1" parent="1">
          <mxGeometry x="510" y="-27.5" width="150" height="451" as="geometry" />
        </mxCell>
        <mxCell id="LLnZXkh-c3uIDS0KH3eN-125" value="Neck" style="whiteSpace=wrap;align=center;verticalAlign=top;fontStyle=1;strokeWidth=3;fillColor=#FFFFCC" vertex="1" parent="1">
          <mxGeometry x="170" y="-27.5" width="320" height="451" as="geometry" />
        </mxCell>
        <mxCell id="3" value="Backbone" style="whiteSpace=wrap;align=center;verticalAlign=top;fontStyle=1;strokeWidth=3;fillColor=#FFFFCC" parent="1" vertex="1">
          <mxGeometry x="10" y="-27.5" width="140" height="451" as="geometry" />
        </mxCell>
        <mxCell id="2" value="&lt;p style=&quot;margin: 0px; margin-top: 4px; text-align: center; text-decoration: underline;&quot;&gt;Stage 1&lt;/p&gt;" style="verticalAlign=middle;align=center;overflow=fill;fontSize=12;fontFamily=Helvetica;html=1;rounded=1;fontStyle=1;strokeWidth=3;fillColor=#E6FFCC" parent="1" vertex="1">
          <mxGeometry x="25" y="96" width="110" height="24" as="geometry" />
        </mxCell>
        <mxCell id="4" value="Stem" style="whiteSpace=wrap;align=center;verticalAlign=middle;fontStyle=1;strokeWidth=3;fillColor=#ccfcff;" parent="1" vertex="1">
          <mxGeometry x="40" y="40" width="80" height="30" as="geometry" />
        </mxCell>
        <mxCell id="6" value="&lt;p style=&quot;margin: 0px; margin-top: 4px; text-align: center; text-decoration: underline;&quot;&gt;&lt;/p&gt;&lt;p style=&quot;margin: 0px; margin-left: 8px;&quot;&gt;Up Stage&lt;/p&gt;" style="verticalAlign=middle;align=center;overflow=fill;fontSize=12;fontFamily=Helvetica;html=1;rounded=1;fontStyle=1;strokeWidth=3;fillColor=#E6FFCC" parent="1" vertex="1">
          <mxGeometry x="201" y="116" width="110" height="24" as="geometry" />
        </mxCell>
        <mxCell id="36" value="" style="edgeStyle=none;noEdgeStyle=1;strokeColor=#990000;strokeWidth=2;exitX=1;exitY=0.5;exitDx=0;exitDy=0;entryX=0;entryY=0.5;entryDx=0;entryDy=0;" parent="1" source="2" target="6" edge="1">
          <mxGeometry width="100" height="100" relative="1" as="geometry">
            <mxPoint x="153.25" y="466.7630331753554" as="sourcePoint" />
            <mxPoint x="40" y="440.9999999999999" as="targetPoint" />
          </mxGeometry>
        </mxCell>
        <mxCell id="37" value="" style="edgeStyle=none;noEdgeStyle=1;strokeColor=#990000;strokeWidth=2;exitX=0.5;exitY=1;exitDx=0;exitDy=0;entryX=0.5;entryY=0;entryDx=0;entryDy=0;" parent="1" source="4" target="2" edge="1">
          <mxGeometry width="100" height="100" relative="1" as="geometry">
            <mxPoint x="216" y="70" as="sourcePoint" />
            <mxPoint x="216" y="96" as="targetPoint" />
          </mxGeometry>
        </mxCell>
        <mxCell id="54" value="Documentation&#xa;from similar projects" style="text;spacingTop=-5;align=center" parent="1" vertex="1">
          <mxGeometry x="186" y="341" width="30" height="20" as="geometry" />
        </mxCell>
        <mxCell id="57" value="Elaborate&#xa;cost/benefit&#xa;ratio" style="text;spacingTop=-5;align=center" parent="1" vertex="1">
          <mxGeometry x="306" y="341" width="30" height="20" as="geometry" />
        </mxCell>
        <mxCell id="LLnZXkh-c3uIDS0KH3eN-96" value="&lt;p style=&quot;margin: 0px; margin-top: 4px; text-align: center; text-decoration: underline;&quot;&gt;Stage 2&lt;/p&gt;" style="verticalAlign=middle;align=center;overflow=fill;fontSize=12;fontFamily=Helvetica;html=1;rounded=1;fontStyle=1;strokeWidth=3;fillColor=#E6FFCC" vertex="1" parent="1">
          <mxGeometry x="25" y="140" width="110" height="24" as="geometry" />
        </mxCell>
        <mxCell id="LLnZXkh-c3uIDS0KH3eN-97" value="&lt;p style=&quot;margin: 0px; margin-top: 4px; text-align: center; text-decoration: underline;&quot;&gt;Stage 1&lt;/p&gt;" style="verticalAlign=middle;align=center;overflow=fill;fontSize=12;fontFamily=Helvetica;html=1;rounded=1;fontStyle=1;strokeWidth=3;fillColor=#E6FFCC" vertex="1" parent="1">
          <mxGeometry x="25" y="186" width="110" height="24" as="geometry" />
        </mxCell>
        <mxCell id="LLnZXkh-c3uIDS0KH3eN-98" value="&lt;p style=&quot;margin: 0px; margin-top: 4px; text-align: center; text-decoration: underline;&quot;&gt;Stage 1&lt;/p&gt;" style="verticalAlign=middle;align=center;overflow=fill;fontSize=12;fontFamily=Helvetica;html=1;rounded=1;fontStyle=1;strokeWidth=3;fillColor=#E6FFCC" vertex="1" parent="1">
          <mxGeometry x="25" y="227" width="110" height="24" as="geometry" />
        </mxCell>
        <mxCell id="LLnZXkh-c3uIDS0KH3eN-99" value="&lt;p style=&quot;margin: 0px; margin-top: 4px; text-align: center; text-decoration: underline;&quot;&gt;Stage 1&lt;/p&gt;" style="verticalAlign=middle;align=center;overflow=fill;fontSize=12;fontFamily=Helvetica;html=1;rounded=1;fontStyle=1;strokeWidth=3;fillColor=#E6FFCC" vertex="1" parent="1">
          <mxGeometry x="25" y="274" width="110" height="24" as="geometry" />
        </mxCell>
        <mxCell id="LLnZXkh-c3uIDS0KH3eN-101" value="" style="edgeStyle=none;noEdgeStyle=1;strokeColor=#990000;strokeWidth=2;exitX=0.5;exitY=1;exitDx=0;exitDy=0;" edge="1" parent="1">
          <mxGeometry width="100" height="100" relative="1" as="geometry">
            <mxPoint x="79.76" y="120" as="sourcePoint" />
            <mxPoint x="80" y="140" as="targetPoint" />
          </mxGeometry>
        </mxCell>
        <mxCell id="LLnZXkh-c3uIDS0KH3eN-102" value="" style="edgeStyle=none;noEdgeStyle=1;strokeColor=#990000;strokeWidth=2;exitX=0.5;exitY=1;exitDx=0;exitDy=0;" edge="1" parent="1">
          <mxGeometry width="100" height="100" relative="1" as="geometry">
            <mxPoint x="79.76" y="166" as="sourcePoint" />
            <mxPoint x="80" y="186" as="targetPoint" />
          </mxGeometry>
        </mxCell>
        <mxCell id="LLnZXkh-c3uIDS0KH3eN-103" value="" style="edgeStyle=none;noEdgeStyle=1;strokeColor=#990000;strokeWidth=2;exitX=0.5;exitY=1;exitDx=0;exitDy=0;" edge="1" parent="1">
          <mxGeometry width="100" height="100" relative="1" as="geometry">
            <mxPoint x="79.76" y="210" as="sourcePoint" />
            <mxPoint x="80" y="230" as="targetPoint" />
          </mxGeometry>
        </mxCell>
        <mxCell id="LLnZXkh-c3uIDS0KH3eN-104" value="" style="edgeStyle=none;noEdgeStyle=1;strokeColor=#990000;strokeWidth=2;exitX=0.5;exitY=1;exitDx=0;exitDy=0;" edge="1" parent="1">
          <mxGeometry width="100" height="100" relative="1" as="geometry">
            <mxPoint x="79.76" y="251" as="sourcePoint" />
            <mxPoint x="80" y="271" as="targetPoint" />
          </mxGeometry>
        </mxCell>
        <mxCell id="LLnZXkh-c3uIDS0KH3eN-105" value="&lt;p style=&quot;margin: 0px; margin-top: 4px; text-align: center; text-decoration: underline;&quot;&gt;&lt;/p&gt;&lt;p style=&quot;margin: 0px; margin-left: 8px;&quot;&gt;Up Stage&lt;/p&gt;" style="verticalAlign=middle;align=center;overflow=fill;fontSize=12;fontFamily=Helvetica;html=1;rounded=1;fontStyle=1;strokeWidth=3;fillColor=#E6FFCC" vertex="1" parent="1">
          <mxGeometry x="201" y="164" width="110" height="24" as="geometry" />
        </mxCell>
        <mxCell id="LLnZXkh-c3uIDS0KH3eN-106" value="&lt;p style=&quot;margin: 0px; margin-top: 4px; text-align: center; text-decoration: underline;&quot;&gt;&lt;/p&gt;&lt;p style=&quot;margin: 0px; margin-left: 8px;&quot;&gt;Down Stage&lt;/p&gt;" style="verticalAlign=middle;align=center;overflow=fill;fontSize=12;fontFamily=Helvetica;html=1;rounded=1;fontStyle=1;strokeWidth=3;fillColor=#E6FFCC" vertex="1" parent="1">
          <mxGeometry x="351" y="164" width="110" height="24" as="geometry" />
        </mxCell>
        <mxCell id="LLnZXkh-c3uIDS0KH3eN-107" value="&lt;p style=&quot;margin: 0px; margin-top: 4px; text-align: center; text-decoration: underline;&quot;&gt;&lt;/p&gt;&lt;p style=&quot;margin: 0px; margin-left: 8px;&quot;&gt;Down Stage&lt;/p&gt;" style="verticalAlign=middle;align=center;overflow=fill;fontSize=12;fontFamily=Helvetica;html=1;rounded=1;fontStyle=1;strokeWidth=3;fillColor=#E6FFCC" vertex="1" parent="1">
          <mxGeometry x="351" y="116" width="110" height="24" as="geometry" />
        </mxCell>
        <mxCell id="LLnZXkh-c3uIDS0KH3eN-108" value="&lt;p style=&quot;margin: 0px; margin-top: 4px; text-align: center; text-decoration: underline;&quot;&gt;&lt;/p&gt;&lt;p style=&quot;margin: 0px; margin-left: 8px;&quot;&gt;Detect Head&lt;/p&gt;" style="verticalAlign=middle;align=center;overflow=fill;fontSize=12;fontFamily=Helvetica;html=1;rounded=1;fontStyle=1;strokeWidth=3;fillColor=#E6FFCC" vertex="1" parent="1">
          <mxGeometry x="530" y="72" width="110" height="24" as="geometry" />
        </mxCell>
        <mxCell id="LLnZXkh-c3uIDS0KH3eN-109" value="&lt;p style=&quot;margin: 0px; margin-top: 4px; text-align: center; text-decoration: underline;&quot;&gt;&lt;/p&gt;&lt;p style=&quot;margin: 0px; margin-left: 8px;&quot;&gt;Detect Head&lt;/p&gt;" style="verticalAlign=middle;align=center;overflow=fill;fontSize=12;fontFamily=Helvetica;html=1;rounded=1;fontStyle=1;strokeWidth=3;fillColor=#E6FFCC" vertex="1" parent="1">
          <mxGeometry x="530" y="116" width="110" height="24" as="geometry" />
        </mxCell>
        <mxCell id="LLnZXkh-c3uIDS0KH3eN-110" value="&lt;p style=&quot;margin: 0px; margin-top: 4px; text-align: center; text-decoration: underline;&quot;&gt;&lt;/p&gt;&lt;p style=&quot;margin: 0px; margin-left: 8px;&quot;&gt;Detect Head&lt;/p&gt;" style="verticalAlign=middle;align=center;overflow=fill;fontSize=12;fontFamily=Helvetica;html=1;rounded=1;fontStyle=1;strokeWidth=3;fillColor=#E6FFCC" vertex="1" parent="1">
          <mxGeometry x="530" y="164" width="110" height="24" as="geometry" />
        </mxCell>
        <mxCell id="LLnZXkh-c3uIDS0KH3eN-112" value="" style="edgeStyle=none;noEdgeStyle=1;strokeColor=#990000;strokeWidth=2;exitX=1;exitY=0.5;exitDx=0;exitDy=0;entryX=0;entryY=0.75;entryDx=0;entryDy=0;" edge="1" parent="1" target="6">
          <mxGeometry width="100" height="100" relative="1" as="geometry">
            <mxPoint x="135" y="151.71" as="sourcePoint" />
            <mxPoint x="216" y="151.71" as="targetPoint" />
          </mxGeometry>
        </mxCell>
        <mxCell id="LLnZXkh-c3uIDS0KH3eN-113" value="" style="edgeStyle=none;noEdgeStyle=1;strokeColor=#990000;strokeWidth=2;exitX=1;exitY=0.5;exitDx=0;exitDy=0;entryX=0;entryY=0.5;entryDx=0;entryDy=0;" edge="1" parent="1">
          <mxGeometry width="100" height="100" relative="1" as="geometry">
            <mxPoint x="135" y="150" as="sourcePoint" />
            <mxPoint x="201" y="170" as="targetPoint" />
          </mxGeometry>
        </mxCell>
        <mxCell id="LLnZXkh-c3uIDS0KH3eN-114" value="" style="edgeStyle=none;noEdgeStyle=1;strokeColor=#990000;strokeWidth=2;exitX=1;exitY=0.5;exitDx=0;exitDy=0;entryX=0;entryY=0.75;entryDx=0;entryDy=0;" edge="1" parent="1">
          <mxGeometry width="100" height="100" relative="1" as="geometry">
            <mxPoint x="135" y="197.71" as="sourcePoint" />
            <mxPoint x="201" y="180" as="targetPoint" />
          </mxGeometry>
        </mxCell>
        <mxCell id="LLnZXkh-c3uIDS0KH3eN-115" value="" style="edgeStyle=none;noEdgeStyle=1;strokeColor=#990000;strokeWidth=2;exitX=0.5;exitY=1;exitDx=0;exitDy=0;entryX=0.5;entryY=0;entryDx=0;entryDy=0;" edge="1" parent="1">
          <mxGeometry width="100" height="100" relative="1" as="geometry">
            <mxPoint x="400.71" y="140" as="sourcePoint" />
            <mxPoint x="400.71" y="166" as="targetPoint" />
          </mxGeometry>
        </mxCell>
        <mxCell id="LLnZXkh-c3uIDS0KH3eN-117" value="" style="edgeStyle=none;noEdgeStyle=1;strokeColor=#990000;strokeWidth=2;exitX=0.5;exitY=0;exitDx=0;exitDy=0;entryX=0.5;entryY=1;entryDx=0;entryDy=0;" edge="1" parent="1" source="LLnZXkh-c3uIDS0KH3eN-105" target="6">
          <mxGeometry width="100" height="100" relative="1" as="geometry">
            <mxPoint x="261" y="201" as="sourcePoint" />
            <mxPoint x="261" y="227" as="targetPoint" />
          </mxGeometry>
        </mxCell>
        <mxCell id="LLnZXkh-c3uIDS0KH3eN-119" value="" style="edgeStyle=none;noEdgeStyle=1;strokeColor=#990000;strokeWidth=2;exitX=1;exitY=0.5;exitDx=0;exitDy=0;entryX=0;entryY=0.5;entryDx=0;entryDy=0;" edge="1" parent="1" source="6" target="LLnZXkh-c3uIDS0KH3eN-107">
          <mxGeometry width="100" height="100" relative="1" as="geometry">
            <mxPoint x="330" y="110" as="sourcePoint" />
            <mxPoint x="350" y="130" as="targetPoint" />
          </mxGeometry>
        </mxCell>
        <mxCell id="LLnZXkh-c3uIDS0KH3eN-120" value="" style="edgeStyle=none;noEdgeStyle=1;strokeColor=#990000;strokeWidth=2;exitX=1;exitY=0.5;exitDx=0;exitDy=0;entryX=0;entryY=0.5;entryDx=0;entryDy=0;" edge="1" parent="1" source="LLnZXkh-c3uIDS0KH3eN-105" target="LLnZXkh-c3uIDS0KH3eN-106">
          <mxGeometry width="100" height="100" relative="1" as="geometry">
            <mxPoint x="312" y="175" as="sourcePoint" />
            <mxPoint x="351" y="177" as="targetPoint" />
          </mxGeometry>
        </mxCell>
        <mxCell id="LLnZXkh-c3uIDS0KH3eN-121" value="" style="edgeStyle=none;noEdgeStyle=1;strokeColor=#990000;strokeWidth=2;exitX=1;exitY=0.25;exitDx=0;exitDy=0;entryX=0.5;entryY=1;entryDx=0;entryDy=0;" edge="1" parent="1" source="LLnZXkh-c3uIDS0KH3eN-99" target="LLnZXkh-c3uIDS0KH3eN-105">
          <mxGeometry width="100" height="100" relative="1" as="geometry">
            <mxPoint x="135" y="287.71000000000004" as="sourcePoint" />
            <mxPoint x="201" y="270" as="targetPoint" />
            <Array as="points">
              <mxPoint x="256" y="280" />
            </Array>
          </mxGeometry>
        </mxCell>
        <mxCell id="LLnZXkh-c3uIDS0KH3eN-122" value="" style="edgeStyle=none;noEdgeStyle=1;strokeColor=#990000;strokeWidth=2;exitX=1;exitY=0.5;exitDx=0;exitDy=0;entryX=0;entryY=0.5;entryDx=0;entryDy=0;" edge="1" parent="1" source="LLnZXkh-c3uIDS0KH3eN-106" target="LLnZXkh-c3uIDS0KH3eN-110">
          <mxGeometry width="100" height="100" relative="1" as="geometry">
            <mxPoint x="471" y="175.83" as="sourcePoint" />
            <mxPoint x="511" y="175.83" as="targetPoint" />
          </mxGeometry>
        </mxCell>
        <mxCell id="LLnZXkh-c3uIDS0KH3eN-123" value="" style="edgeStyle=none;noEdgeStyle=1;strokeColor=#990000;strokeWidth=2;exitX=1;exitY=0.5;exitDx=0;exitDy=0;entryX=0;entryY=0.5;entryDx=0;entryDy=0;" edge="1" parent="1" source="LLnZXkh-c3uIDS0KH3eN-107" target="LLnZXkh-c3uIDS0KH3eN-109">
          <mxGeometry width="100" height="100" relative="1" as="geometry">
            <mxPoint x="471" y="186" as="sourcePoint" />
            <mxPoint x="660" y="186" as="targetPoint" />
          </mxGeometry>
        </mxCell>
        <mxCell id="LLnZXkh-c3uIDS0KH3eN-124" value="" style="edgeStyle=none;noEdgeStyle=1;strokeColor=#990000;strokeWidth=2;exitX=0.5;exitY=0;exitDx=0;exitDy=0;entryX=-0.023;entryY=0.486;entryDx=0;entryDy=0;entryPerimeter=0;" edge="1" parent="1" source="6" target="LLnZXkh-c3uIDS0KH3eN-108">
          <mxGeometry width="100" height="100" relative="1" as="geometry">
            <mxPoint x="401.5" y="83.83" as="sourcePoint" />
            <mxPoint x="590.5" y="83.83" as="targetPoint" />
            <Array as="points">
              <mxPoint x="256" y="84" />
            </Array>
          </mxGeometry>
        </mxCell>
        <mxCell id="LLnZXkh-c3uIDS0KH3eN-127" value="&lt;p style=&quot;margin: 0px; margin-top: 4px; text-align: center; text-decoration: underline;&quot;&gt;&lt;/p&gt;&lt;p style=&quot;margin: 0px; margin-left: 8px;&quot;&gt;Detect Head&lt;/p&gt;" style="verticalAlign=middle;align=center;overflow=fill;fontSize=12;fontFamily=Helvetica;html=1;rounded=1;fontStyle=1;strokeWidth=3;fillColor=#E6FFCC" vertex="1" parent="1">
          <mxGeometry x="-1010" y="620" width="780" height="770" as="geometry" />
        </mxCell>
        <mxCell id="LLnZXkh-c3uIDS0KH3eN-128" value="BBox Stem" style="rounded=0;whiteSpace=wrap;html=1;fillColor=#f8cecc;strokeColor=#b85450;" vertex="1" parent="1">
          <mxGeometry x="-920" y="770" width="120" height="60" as="geometry" />
        </mxCell>
        <mxCell id="LLnZXkh-c3uIDS0KH3eN-129" value="Pose Stem" style="rounded=0;whiteSpace=wrap;html=1;fillColor=#f8cecc;strokeColor=#b85450;" vertex="1" parent="1">
          <mxGeometry x="-920" y="1090" width="120" height="60" as="geometry" />
        </mxCell>
        <mxCell id="LLnZXkh-c3uIDS0KH3eN-130" value="Cls Conv 1" style="rounded=0;whiteSpace=wrap;html=1;fillColor=#f8cecc;strokeColor=#b85450;" vertex="1" parent="1">
          <mxGeometry x="-529" y="740" width="120" height="60" as="geometry" />
        </mxCell>
        <mxCell id="LLnZXkh-c3uIDS0KH3eN-178" value="" style="edgeStyle=orthogonalEdgeStyle;rounded=0;orthogonalLoop=1;jettySize=auto;html=1;" edge="1" parent="1" source="LLnZXkh-c3uIDS0KH3eN-131" target="LLnZXkh-c3uIDS0KH3eN-133">
          <mxGeometry relative="1" as="geometry" />
        </mxCell>
        <mxCell id="LLnZXkh-c3uIDS0KH3eN-131" value="Reg Conv 1" style="rounded=0;whiteSpace=wrap;html=1;fillColor=#f8cecc;strokeColor=#b85450;" vertex="1" parent="1">
          <mxGeometry x="-529" y="810" width="120" height="60" as="geometry" />
        </mxCell>
        <mxCell id="LLnZXkh-c3uIDS0KH3eN-132" value="Cls Pred" style="rounded=0;whiteSpace=wrap;html=1;fillColor=#dae8fc;strokeColor=#6c8ebf;" vertex="1" parent="1">
          <mxGeometry x="-370" y="740" width="120" height="60" as="geometry" />
        </mxCell>
        <mxCell id="LLnZXkh-c3uIDS0KH3eN-133" value="Reg Pred" style="rounded=0;whiteSpace=wrap;html=1;fillColor=#dae8fc;strokeColor=#6c8ebf;" vertex="1" parent="1">
          <mxGeometry x="-370" y="810" width="120" height="60" as="geometry" />
        </mxCell>
        <mxCell id="LLnZXkh-c3uIDS0KH3eN-134" value="Shape Pred" style="rounded=0;whiteSpace=wrap;html=1;fillColor=#dae8fc;strokeColor=#6c8ebf;" vertex="1" parent="1">
          <mxGeometry x="-370" y="880" width="120" height="60" as="geometry" />
        </mxCell>
        <mxCell id="LLnZXkh-c3uIDS0KH3eN-135" value="Expr Pred" style="rounded=0;whiteSpace=wrap;html=1;fillColor=#dae8fc;strokeColor=#6c8ebf;" vertex="1" parent="1">
          <mxGeometry x="-370" y="950" width="120" height="60" as="geometry" />
        </mxCell>
        <mxCell id="LLnZXkh-c3uIDS0KH3eN-136" value="Rot Pred" style="rounded=0;whiteSpace=wrap;html=1;fillColor=#dae8fc;strokeColor=#6c8ebf;" vertex="1" parent="1">
          <mxGeometry x="-370" y="1020" width="120" height="60" as="geometry" />
        </mxCell>
        <mxCell id="LLnZXkh-c3uIDS0KH3eN-137" value="Jaw pred" style="rounded=0;whiteSpace=wrap;html=1;fillColor=#dae8fc;strokeColor=#6c8ebf;" vertex="1" parent="1">
          <mxGeometry x="-370" y="1230" width="120" height="60" as="geometry" />
        </mxCell>
        <mxCell id="LLnZXkh-c3uIDS0KH3eN-138" value="Translation Pred" style="rounded=0;whiteSpace=wrap;html=1;fillColor=#dae8fc;strokeColor=#6c8ebf;" vertex="1" parent="1">
          <mxGeometry x="-370" y="1090" width="120" height="60" as="geometry" />
        </mxCell>
        <mxCell id="LLnZXkh-c3uIDS0KH3eN-139" value="Scale" style="rounded=0;whiteSpace=wrap;html=1;fillColor=#dae8fc;strokeColor=#6c8ebf;" vertex="1" parent="1">
          <mxGeometry x="-370" y="1160" width="120" height="60" as="geometry" />
        </mxCell>
        <mxCell id="LLnZXkh-c3uIDS0KH3eN-140" value="QARepVGGBlock" style="rounded=0;whiteSpace=wrap;html=1;fillColor=#b0e3e6;strokeColor=#0e8088;" vertex="1" parent="1">
          <mxGeometry x="-684" y="880" width="120" height="60" as="geometry" />
        </mxCell>
        <mxCell id="LLnZXkh-c3uIDS0KH3eN-141" value="QARepVGGBlock" style="rounded=0;whiteSpace=wrap;html=1;fillColor=#b0e3e6;strokeColor=#0e8088;" vertex="1" parent="1">
          <mxGeometry x="-529" y="880" width="120" height="60" as="geometry" />
        </mxCell>
        <mxCell id="LLnZXkh-c3uIDS0KH3eN-142" value="QARepVGGBlock" style="rounded=0;whiteSpace=wrap;html=1;fillColor=#b0e3e6;strokeColor=#0e8088;" vertex="1" parent="1">
          <mxGeometry x="-684" y="950" width="120" height="60" as="geometry" />
        </mxCell>
        <mxCell id="LLnZXkh-c3uIDS0KH3eN-143" value="QARepVGGBlock" style="rounded=0;whiteSpace=wrap;html=1;fillColor=#b0e3e6;strokeColor=#0e8088;" vertex="1" parent="1">
          <mxGeometry x="-529" y="950" width="120" height="60" as="geometry" />
        </mxCell>
        <mxCell id="LLnZXkh-c3uIDS0KH3eN-144" value="QARepVGGBlock" style="rounded=0;whiteSpace=wrap;html=1;fillColor=#b0e3e6;strokeColor=#0e8088;" vertex="1" parent="1">
          <mxGeometry x="-684" y="1020" width="120" height="60" as="geometry" />
        </mxCell>
        <mxCell id="LLnZXkh-c3uIDS0KH3eN-145" value="QARepVGGBlock" style="rounded=0;whiteSpace=wrap;html=1;fillColor=#b0e3e6;strokeColor=#0e8088;" vertex="1" parent="1">
          <mxGeometry x="-529" y="1020" width="120" height="60" as="geometry" />
        </mxCell>
        <mxCell id="LLnZXkh-c3uIDS0KH3eN-146" value="QARepVGGBlock" style="rounded=0;whiteSpace=wrap;html=1;fillColor=#b0e3e6;strokeColor=#0e8088;" vertex="1" parent="1">
          <mxGeometry x="-684" y="1090" width="120" height="60" as="geometry" />
        </mxCell>
        <mxCell id="LLnZXkh-c3uIDS0KH3eN-147" value="QARepVGGBlock" style="rounded=0;whiteSpace=wrap;html=1;fillColor=#b0e3e6;strokeColor=#0e8088;" vertex="1" parent="1">
          <mxGeometry x="-529" y="1090" width="120" height="60" as="geometry" />
        </mxCell>
        <mxCell id="LLnZXkh-c3uIDS0KH3eN-148" value="QARepVGGBlock" style="rounded=0;whiteSpace=wrap;html=1;fillColor=#b0e3e6;strokeColor=#0e8088;" vertex="1" parent="1">
          <mxGeometry x="-684" y="1160" width="120" height="60" as="geometry" />
        </mxCell>
        <mxCell id="LLnZXkh-c3uIDS0KH3eN-149" value="QARepVGGBlock" style="rounded=0;whiteSpace=wrap;html=1;fillColor=#b0e3e6;strokeColor=#0e8088;" vertex="1" parent="1">
          <mxGeometry x="-529" y="1160" width="120" height="60" as="geometry" />
        </mxCell>
        <mxCell id="LLnZXkh-c3uIDS0KH3eN-150" value="QARepVGGBlock" style="rounded=0;whiteSpace=wrap;html=1;fillColor=#b0e3e6;strokeColor=#0e8088;" vertex="1" parent="1">
          <mxGeometry x="-684" y="1230" width="120" height="60" as="geometry" />
        </mxCell>
        <mxCell id="LLnZXkh-c3uIDS0KH3eN-151" value="QARepVGGBlock" style="rounded=0;whiteSpace=wrap;html=1;fillColor=#b0e3e6;strokeColor=#0e8088;" vertex="1" parent="1">
          <mxGeometry x="-529" y="1230" width="120" height="60" as="geometry" />
        </mxCell>
        <mxCell id="LLnZXkh-c3uIDS0KH3eN-153" value="" style="edgeStyle=none;noEdgeStyle=1;strokeColor=#990000;strokeWidth=2;entryX=0.5;entryY=1;entryDx=0;entryDy=0;" edge="1" parent="1" target="LLnZXkh-c3uIDS0KH3eN-128">
          <mxGeometry width="100" height="100" relative="1" as="geometry">
            <mxPoint x="-970" y="1030" as="sourcePoint" />
            <mxPoint x="-855" y="940" as="targetPoint" />
            <Array as="points">
              <mxPoint x="-860" y="1030" />
            </Array>
          </mxGeometry>
        </mxCell>
        <mxCell id="LLnZXkh-c3uIDS0KH3eN-154" value="" style="edgeStyle=none;noEdgeStyle=1;strokeColor=#990000;strokeWidth=2;entryX=0.5;entryY=0;entryDx=0;entryDy=0;" edge="1" parent="1" target="LLnZXkh-c3uIDS0KH3eN-129">
          <mxGeometry width="100" height="100" relative="1" as="geometry">
            <mxPoint x="-970" y="1030" as="sourcePoint" />
            <mxPoint x="-850" y="840" as="targetPoint" />
            <Array as="points">
              <mxPoint x="-920" y="1030" />
              <mxPoint x="-860" y="1030" />
            </Array>
          </mxGeometry>
        </mxCell>
        <mxCell id="LLnZXkh-c3uIDS0KH3eN-155" value="" style="edgeStyle=none;noEdgeStyle=1;strokeColor=#990000;strokeWidth=2;exitX=1;exitY=0.5;exitDx=0;exitDy=0;entryX=0;entryY=0.5;entryDx=0;entryDy=0;" edge="1" parent="1" source="LLnZXkh-c3uIDS0KH3eN-128" target="LLnZXkh-c3uIDS0KH3eN-130">
          <mxGeometry width="100" height="100" relative="1" as="geometry">
            <mxPoint x="-771" y="702" as="sourcePoint" />
            <mxPoint x="-500" y="670" as="targetPoint" />
            <Array as="points">
              <mxPoint x="-680" y="770" />
            </Array>
          </mxGeometry>
        </mxCell>
        <mxCell id="LLnZXkh-c3uIDS0KH3eN-156" value="" style="edgeStyle=none;noEdgeStyle=1;strokeColor=#990000;strokeWidth=2;entryX=0;entryY=0.5;entryDx=0;entryDy=0;" edge="1" parent="1" target="LLnZXkh-c3uIDS0KH3eN-131">
          <mxGeometry width="100" height="100" relative="1" as="geometry">
            <mxPoint x="-800" y="800" as="sourcePoint" />
            <mxPoint x="-544" y="780" as="targetPoint" />
            <Array as="points">
              <mxPoint x="-680" y="840" />
            </Array>
          </mxGeometry>
        </mxCell>
        <mxCell id="LLnZXkh-c3uIDS0KH3eN-157" value="" style="edgeStyle=none;noEdgeStyle=1;strokeColor=#990000;strokeWidth=2;exitX=1;exitY=0.5;exitDx=0;exitDy=0;entryX=0;entryY=0.5;entryDx=0;entryDy=0;" edge="1" parent="1" source="LLnZXkh-c3uIDS0KH3eN-129" target="LLnZXkh-c3uIDS0KH3eN-140">
          <mxGeometry width="100" height="100" relative="1" as="geometry">
            <mxPoint x="-1140" y="980" as="sourcePoint" />
            <mxPoint x="-894" y="950" as="targetPoint" />
            <Array as="points">
              <mxPoint x="-760" y="1120" />
              <mxPoint x="-760" y="910" />
            </Array>
          </mxGeometry>
        </mxCell>
        <mxCell id="LLnZXkh-c3uIDS0KH3eN-158" value="" style="edgeStyle=none;noEdgeStyle=1;strokeColor=#990000;strokeWidth=2;entryX=0;entryY=0.5;entryDx=0;entryDy=0;" edge="1" parent="1" target="LLnZXkh-c3uIDS0KH3eN-142">
          <mxGeometry width="100" height="100" relative="1" as="geometry">
            <mxPoint x="-800" y="1120" as="sourcePoint" />
            <mxPoint x="-674" y="920" as="targetPoint" />
            <Array as="points">
              <mxPoint x="-760" y="1120" />
              <mxPoint x="-760" y="980" />
            </Array>
          </mxGeometry>
        </mxCell>
        <mxCell id="LLnZXkh-c3uIDS0KH3eN-159" value="" style="edgeStyle=none;noEdgeStyle=1;strokeColor=#990000;strokeWidth=2;entryX=0;entryY=0.5;entryDx=0;entryDy=0;exitX=1;exitY=0.5;exitDx=0;exitDy=0;" edge="1" parent="1" source="LLnZXkh-c3uIDS0KH3eN-129">
          <mxGeometry width="100" height="100" relative="1" as="geometry">
            <mxPoint x="-800" y="1195" as="sourcePoint" />
            <mxPoint x="-684" y="1045" as="targetPoint" />
            <Array as="points">
              <mxPoint x="-760" y="1120" />
              <mxPoint x="-760" y="1045" />
            </Array>
          </mxGeometry>
        </mxCell>
        <mxCell id="LLnZXkh-c3uIDS0KH3eN-160" value="" style="edgeStyle=none;noEdgeStyle=1;strokeColor=#990000;strokeWidth=2;entryX=0;entryY=0.5;entryDx=0;entryDy=0;exitX=1;exitY=0.5;exitDx=0;exitDy=0;" edge="1" parent="1" source="LLnZXkh-c3uIDS0KH3eN-129" target="LLnZXkh-c3uIDS0KH3eN-146">
          <mxGeometry width="100" height="100" relative="1" as="geometry">
            <mxPoint x="-804" y="1220" as="sourcePoint" />
            <mxPoint x="-688" y="1135" as="targetPoint" />
            <Array as="points" />
          </mxGeometry>
        </mxCell>
        <mxCell id="LLnZXkh-c3uIDS0KH3eN-161" value="" style="edgeStyle=none;noEdgeStyle=1;strokeColor=#990000;strokeWidth=2;entryX=0;entryY=0.5;entryDx=0;entryDy=0;exitX=1;exitY=0.5;exitDx=0;exitDy=0;" edge="1" parent="1" source="LLnZXkh-c3uIDS0KH3eN-129" target="LLnZXkh-c3uIDS0KH3eN-148">
          <mxGeometry width="100" height="100" relative="1" as="geometry">
            <mxPoint x="-790" y="1140" as="sourcePoint" />
            <mxPoint x="-674" y="1130" as="targetPoint" />
            <Array as="points">
              <mxPoint x="-760" y="1120" />
              <mxPoint x="-760" y="1190" />
            </Array>
          </mxGeometry>
        </mxCell>
        <mxCell id="LLnZXkh-c3uIDS0KH3eN-162" value="" style="edgeStyle=none;noEdgeStyle=1;strokeColor=#990000;strokeWidth=2;entryX=0;entryY=0.5;entryDx=0;entryDy=0;exitX=1;exitY=0.5;exitDx=0;exitDy=0;" edge="1" parent="1" source="LLnZXkh-c3uIDS0KH3eN-129" target="LLnZXkh-c3uIDS0KH3eN-150">
          <mxGeometry width="100" height="100" relative="1" as="geometry">
            <mxPoint x="-840" y="1190" as="sourcePoint" />
            <mxPoint x="-724" y="1250" as="targetPoint" />
            <Array as="points">
              <mxPoint x="-760" y="1120" />
              <mxPoint x="-760" y="1260" />
            </Array>
          </mxGeometry>
        </mxCell>
        <mxCell id="LLnZXkh-c3uIDS0KH3eN-163" value="" style="edgeStyle=none;noEdgeStyle=1;strokeColor=#990000;strokeWidth=2;exitX=1;exitY=0.5;exitDx=0;exitDy=0;entryX=0;entryY=0.5;entryDx=0;entryDy=0;" edge="1" parent="1">
          <mxGeometry width="100" height="100" relative="1" as="geometry">
            <mxPoint x="-564" y="909.62" as="sourcePoint" />
            <mxPoint x="-524" y="909.62" as="targetPoint" />
          </mxGeometry>
        </mxCell>
        <mxCell id="LLnZXkh-c3uIDS0KH3eN-165" value="" style="edgeStyle=none;noEdgeStyle=1;strokeColor=#990000;strokeWidth=2;exitX=1;exitY=0.5;exitDx=0;exitDy=0;entryX=0;entryY=0.5;entryDx=0;entryDy=0;" edge="1" parent="1">
          <mxGeometry width="100" height="100" relative="1" as="geometry">
            <mxPoint x="-564" y="979.6800000000001" as="sourcePoint" />
            <mxPoint x="-524" y="979.6800000000001" as="targetPoint" />
          </mxGeometry>
        </mxCell>
        <mxCell id="LLnZXkh-c3uIDS0KH3eN-166" value="" style="edgeStyle=none;noEdgeStyle=1;strokeColor=#990000;strokeWidth=2;exitX=1;exitY=0.5;exitDx=0;exitDy=0;entryX=0;entryY=0.5;entryDx=0;entryDy=0;" edge="1" parent="1">
          <mxGeometry width="100" height="100" relative="1" as="geometry">
            <mxPoint x="-564" y="1049.68" as="sourcePoint" />
            <mxPoint x="-524" y="1049.68" as="targetPoint" />
          </mxGeometry>
        </mxCell>
        <mxCell id="LLnZXkh-c3uIDS0KH3eN-167" value="" style="edgeStyle=none;noEdgeStyle=1;strokeColor=#990000;strokeWidth=2;exitX=1;exitY=0.5;exitDx=0;exitDy=0;entryX=0;entryY=0.5;entryDx=0;entryDy=0;" edge="1" parent="1">
          <mxGeometry width="100" height="100" relative="1" as="geometry">
            <mxPoint x="-409" y="909.68" as="sourcePoint" />
            <mxPoint x="-369" y="909.68" as="targetPoint" />
          </mxGeometry>
        </mxCell>
        <mxCell id="LLnZXkh-c3uIDS0KH3eN-168" value="" style="edgeStyle=none;noEdgeStyle=1;strokeColor=#990000;strokeWidth=2;exitX=1;exitY=0.5;exitDx=0;exitDy=0;entryX=0;entryY=0.5;entryDx=0;entryDy=0;" edge="1" parent="1">
          <mxGeometry width="100" height="100" relative="1" as="geometry">
            <mxPoint x="-409" y="979.68" as="sourcePoint" />
            <mxPoint x="-369" y="979.68" as="targetPoint" />
          </mxGeometry>
        </mxCell>
        <mxCell id="LLnZXkh-c3uIDS0KH3eN-169" value="" style="edgeStyle=none;noEdgeStyle=1;strokeColor=#990000;strokeWidth=2;exitX=1;exitY=0.5;exitDx=0;exitDy=0;entryX=0;entryY=0.5;entryDx=0;entryDy=0;" edge="1" parent="1">
          <mxGeometry width="100" height="100" relative="1" as="geometry">
            <mxPoint x="-409" y="1049.68" as="sourcePoint" />
            <mxPoint x="-369" y="1049.68" as="targetPoint" />
          </mxGeometry>
        </mxCell>
        <mxCell id="LLnZXkh-c3uIDS0KH3eN-170" value="" style="edgeStyle=none;noEdgeStyle=1;strokeColor=#990000;strokeWidth=2;exitX=1;exitY=0.5;exitDx=0;exitDy=0;entryX=0;entryY=0.5;entryDx=0;entryDy=0;" edge="1" parent="1">
          <mxGeometry width="100" height="100" relative="1" as="geometry">
            <mxPoint x="-409" y="1119.68" as="sourcePoint" />
            <mxPoint x="-369" y="1119.68" as="targetPoint" />
          </mxGeometry>
        </mxCell>
        <mxCell id="LLnZXkh-c3uIDS0KH3eN-171" value="" style="edgeStyle=none;noEdgeStyle=1;strokeColor=#990000;strokeWidth=2;exitX=1;exitY=0.5;exitDx=0;exitDy=0;entryX=0;entryY=0.5;entryDx=0;entryDy=0;" edge="1" parent="1">
          <mxGeometry width="100" height="100" relative="1" as="geometry">
            <mxPoint x="-564" y="1119.68" as="sourcePoint" />
            <mxPoint x="-524" y="1119.68" as="targetPoint" />
          </mxGeometry>
        </mxCell>
        <mxCell id="LLnZXkh-c3uIDS0KH3eN-172" value="" style="edgeStyle=none;noEdgeStyle=1;strokeColor=#990000;strokeWidth=2;exitX=1;exitY=0.5;exitDx=0;exitDy=0;entryX=0;entryY=0.5;entryDx=0;entryDy=0;" edge="1" parent="1">
          <mxGeometry width="100" height="100" relative="1" as="geometry">
            <mxPoint x="-564" y="1189.68" as="sourcePoint" />
            <mxPoint x="-524" y="1189.68" as="targetPoint" />
          </mxGeometry>
        </mxCell>
        <mxCell id="LLnZXkh-c3uIDS0KH3eN-173" value="" style="edgeStyle=none;noEdgeStyle=1;strokeColor=#990000;strokeWidth=2;exitX=1;exitY=0.5;exitDx=0;exitDy=0;entryX=0;entryY=0.5;entryDx=0;entryDy=0;" edge="1" parent="1">
          <mxGeometry width="100" height="100" relative="1" as="geometry">
            <mxPoint x="-564" y="1259.68" as="sourcePoint" />
            <mxPoint x="-524" y="1259.68" as="targetPoint" />
          </mxGeometry>
        </mxCell>
        <mxCell id="LLnZXkh-c3uIDS0KH3eN-174" value="" style="edgeStyle=none;noEdgeStyle=1;strokeColor=#990000;strokeWidth=2;exitX=1;exitY=0.5;exitDx=0;exitDy=0;entryX=0;entryY=0.5;entryDx=0;entryDy=0;" edge="1" parent="1">
          <mxGeometry width="100" height="100" relative="1" as="geometry">
            <mxPoint x="-409" y="1189.68" as="sourcePoint" />
            <mxPoint x="-369" y="1189.68" as="targetPoint" />
          </mxGeometry>
        </mxCell>
        <mxCell id="LLnZXkh-c3uIDS0KH3eN-175" value="" style="edgeStyle=none;noEdgeStyle=1;strokeColor=#990000;strokeWidth=2;exitX=1;exitY=0.5;exitDx=0;exitDy=0;entryX=0;entryY=0.5;entryDx=0;entryDy=0;" edge="1" parent="1">
          <mxGeometry width="100" height="100" relative="1" as="geometry">
            <mxPoint x="-409" y="1259.68" as="sourcePoint" />
            <mxPoint x="-369" y="1259.68" as="targetPoint" />
          </mxGeometry>
        </mxCell>
        <mxCell id="LLnZXkh-c3uIDS0KH3eN-176" value="" style="edgeStyle=none;noEdgeStyle=1;strokeColor=#990000;strokeWidth=2;exitX=1;exitY=0.5;exitDx=0;exitDy=0;entryX=0;entryY=0.5;entryDx=0;entryDy=0;" edge="1" parent="1" source="LLnZXkh-c3uIDS0KH3eN-131" target="LLnZXkh-c3uIDS0KH3eN-133">
          <mxGeometry width="100" height="100" relative="1" as="geometry">
            <mxPoint x="-434" y="839.62" as="sourcePoint" />
            <mxPoint x="-394" y="839.62" as="targetPoint" />
          </mxGeometry>
        </mxCell>
        <mxCell id="LLnZXkh-c3uIDS0KH3eN-177" value="" style="edgeStyle=none;noEdgeStyle=1;strokeColor=#990000;strokeWidth=2;entryX=0;entryY=0.5;entryDx=0;entryDy=0;" edge="1" parent="1" target="LLnZXkh-c3uIDS0KH3eN-132">
          <mxGeometry width="100" height="100" relative="1" as="geometry">
            <mxPoint x="-410" y="770" as="sourcePoint" />
            <mxPoint x="-394" y="770" as="targetPoint" />
          </mxGeometry>
        </mxCell>
        <mxCell id="LLnZXkh-c3uIDS0KH3eN-179" value="Conv 1x1" style="rounded=0;whiteSpace=wrap;html=1;fillColor=#dae8fc;strokeColor=#6c8ebf;" vertex="1" parent="1">
          <mxGeometry x="-490" y="1450" width="120" height="60" as="geometry" />
        </mxCell>
        <mxCell id="LLnZXkh-c3uIDS0KH3eN-180" value="Conv + BN + Relu" style="rounded=0;whiteSpace=wrap;html=1;fillColor=#f8cecc;strokeColor=#b85450;" vertex="1" parent="1">
          <mxGeometry x="-830" y="1450" width="120" height="60" as="geometry" />
        </mxCell>
        <mxCell id="LLnZXkh-c3uIDS0KH3eN-181" value="QARepVGGBlock" style="rounded=0;whiteSpace=wrap;html=1;fillColor=#b0e3e6;strokeColor=#0e8088;" vertex="1" parent="1">
          <mxGeometry x="-649" y="1450" width="120" height="60" as="geometry" />
        </mxCell>
        <mxCell id="LLnZXkh-c3uIDS0KH3eN-182" value="" style="edgeStyle=none;noEdgeStyle=1;strokeColor=#990000;strokeWidth=2;entryX=0;entryY=0.5;entryDx=0;entryDy=0;" edge="1" parent="1">
          <mxGeometry width="100" height="100" relative="1" as="geometry">
            <mxPoint x="-250" y="770" as="sourcePoint" />
            <mxPoint x="-210" y="770" as="targetPoint" />
          </mxGeometry>
        </mxCell>
        <mxCell id="LLnZXkh-c3uIDS0KH3eN-184" value="" style="edgeStyle=none;noEdgeStyle=1;strokeColor=#990000;strokeWidth=2;entryX=0;entryY=0.5;entryDx=0;entryDy=0;" edge="1" parent="1">
          <mxGeometry width="100" height="100" relative="1" as="geometry">
            <mxPoint x="-250" y="909.55" as="sourcePoint" />
            <mxPoint x="-210" y="909.55" as="targetPoint" />
          </mxGeometry>
        </mxCell>
        <mxCell id="LLnZXkh-c3uIDS0KH3eN-187" value="" style="edgeStyle=none;noEdgeStyle=1;strokeColor=#990000;strokeWidth=2;entryX=0;entryY=0.5;entryDx=0;entryDy=0;" edge="1" parent="1">
          <mxGeometry width="100" height="100" relative="1" as="geometry">
            <mxPoint x="-250" y="979.55" as="sourcePoint" />
            <mxPoint x="-210" y="979.55" as="targetPoint" />
          </mxGeometry>
        </mxCell>
        <mxCell id="LLnZXkh-c3uIDS0KH3eN-188" value="" style="edgeStyle=none;noEdgeStyle=1;strokeColor=#990000;strokeWidth=2;entryX=0;entryY=0.5;entryDx=0;entryDy=0;" edge="1" parent="1">
          <mxGeometry width="100" height="100" relative="1" as="geometry">
            <mxPoint x="-250" y="839.55" as="sourcePoint" />
            <mxPoint x="-210" y="839.55" as="targetPoint" />
          </mxGeometry>
        </mxCell>
        <mxCell id="LLnZXkh-c3uIDS0KH3eN-189" value="" style="edgeStyle=none;noEdgeStyle=1;strokeColor=#990000;strokeWidth=2;entryX=0;entryY=0.5;entryDx=0;entryDy=0;" edge="1" parent="1">
          <mxGeometry width="100" height="100" relative="1" as="geometry">
            <mxPoint x="-250" y="1049.55" as="sourcePoint" />
            <mxPoint x="-210" y="1049.55" as="targetPoint" />
          </mxGeometry>
        </mxCell>
        <mxCell id="LLnZXkh-c3uIDS0KH3eN-190" value="" style="edgeStyle=none;noEdgeStyle=1;strokeColor=#990000;strokeWidth=2;entryX=0;entryY=0.5;entryDx=0;entryDy=0;" edge="1" parent="1">
          <mxGeometry width="100" height="100" relative="1" as="geometry">
            <mxPoint x="-250" y="1119.55" as="sourcePoint" />
            <mxPoint x="-210" y="1119.55" as="targetPoint" />
          </mxGeometry>
        </mxCell>
        <mxCell id="LLnZXkh-c3uIDS0KH3eN-192" value="" style="edgeStyle=none;noEdgeStyle=1;strokeColor=#990000;strokeWidth=2;entryX=0;entryY=0.5;entryDx=0;entryDy=0;" edge="1" parent="1">
          <mxGeometry width="100" height="100" relative="1" as="geometry">
            <mxPoint x="-250" y="1259.55" as="sourcePoint" />
            <mxPoint x="-210" y="1259.55" as="targetPoint" />
          </mxGeometry>
        </mxCell>
        <mxCell id="LLnZXkh-c3uIDS0KH3eN-193" value="" style="edgeStyle=none;noEdgeStyle=1;strokeColor=#990000;strokeWidth=2;entryX=0;entryY=0.5;entryDx=0;entryDy=0;" edge="1" parent="1">
          <mxGeometry width="100" height="100" relative="1" as="geometry">
            <mxPoint x="-250" y="1189.55" as="sourcePoint" />
            <mxPoint x="-210" y="1189.55" as="targetPoint" />
          </mxGeometry>
        </mxCell>
      </root>
    </mxGraphModel>
  </diagram>
</mxfile>
